<?xml version="1.0" encoding="UTF-8" standalone="no"?>
<svg
   xmlns:dc="http://purl.org/dc/elements/1.1/"
   xmlns:cc="http://creativecommons.org/ns#"
   xmlns:rdf="http://www.w3.org/1999/02/22-rdf-syntax-ns#"
   xmlns:svg="http://www.w3.org/2000/svg"
   xmlns="http://www.w3.org/2000/svg"
   xmlns:sodipodi="http://sodipodi.sourceforge.net/DTD/sodipodi-0.dtd"
   xmlns:inkscape="http://www.inkscape.org/namespaces/inkscape"
   width="552.81023"
   height="515.45882"
   viewBox="0 0 552.81023 515.45882"
   version="1.1"
   id="svg1040"
   sodipodi:docname="not found.svg"
   inkscape:version="1.0.2 (e86c8708, 2021-01-15)">
  <metadata
     id="metadata1046">
    <rdf:RDF>
      <cc:Work
         rdf:about="">
        <dc:format>image/svg+xml</dc:format>
        <dc:type
           rdf:resource="http://purl.org/dc/dcmitype/StillImage" />
        <dc:title></dc:title>
      </cc:Work>
    </rdf:RDF>
  </metadata>
  <defs
     id="defs1044" />
  <sodipodi:namedview
     pagecolor="#ffffff"
     bordercolor="#666666"
     borderopacity="1"
     objecttolerance="10"
     gridtolerance="10"
     guidetolerance="10"
     inkscape:pageopacity="0"
     inkscape:pageshadow="2"
     inkscape:window-width="1440"
     inkscape:window-height="900"
     id="namedview1042"
     showgrid="false"
     inkscape:zoom="4.3299648"
     inkscape:cx="253.65337"
     inkscape:cy="79.881699"
     inkscape:window-x="0"
     inkscape:window-y="0"
     inkscape:window-maximized="0"
     inkscape:current-layer="svg1040" />
  <path
     d="M372.63287,365.4151H174.32491c-16.66894,0-30.22987-13.56093-30.22987-30.22987V136.87726c0-16.66894,13.56093-30.22987,30.22987-30.22987h198.30797c16.66894,0,30.22987,13.56093,30.22987,30.22987v198.30797c0,16.66894-13.56093,30.22987-30.22987,30.22987ZM174.32491,111.48416c-14.02422,0-25.39309,11.36888-25.39309,25.39309v198.30797c0,14.02422,11.36888,25.39309,25.39309,25.39309h138.90984c46.8289,0,84.79122-37.96232,84.79122-84.79122V136.87726c0-14.02422-11.36888-25.39309-25.39309-25.39309H174.32491Z"
     fill="#f2f2f2"
     id="path980" />
  <path
     d="M195.70439,132.1061c-9.38575,0-17.02112,7.63537-17.02112,17.02112v26.64175c0,9.38575,7.63537,17.02112,17.02112,17.02112h26.64175c9.38575,0,17.02112-7.63537,17.02112-17.02112v-26.64175c0-9.38575-7.63537-17.02112-17.02112-17.02112h-26.64175Z"
     fill="#f2f2f2"
     id="path982" />
  <path
     d="M195.70439,207.1061c-9.38575,0-17.02112,7.63537-17.02112,17.02112v26.64175c0,9.38575,7.63537,17.02112,17.02112,17.02112h26.64175c9.38575,0,17.02112-7.63537,17.02112-17.02112v-26.64175c0-9.38575-7.63537-17.02112-17.02112-17.02112h-26.64175Z"
     fill="#f2f2f2"
     id="path984" />
  <path
     d="M195.70439,282.1061c-9.38575,0-17.02112,7.63537-17.02112,17.02112v26.64175c0,9.38575,7.63537,17.02112,17.02112,17.02112h26.64175c9.38575,0,17.02112-7.63537,17.02112-17.02112v-26.64175c0-9.38575-7.63537-17.02112-17.02112-17.02112h-26.64175Z"
     fill="#f2f2f2"
     id="path986" />
  <g
     id="g1028">
    <path
       d="M323.89034,160.9186c-11.82633,0-21.44711,9.62079-21.44711,21.44711v33.56939c0,11.82633,9.62079,21.44711,21.44711,21.44711h33.56939c11.82633,0,21.44711-9.62079,21.44711-21.44711v-33.56939c0-11.82633-9.62079-21.44711-21.44711-21.44711h-33.56939Z"
       fill="#6c63ff"
       id="path990" />
    <g
       id="g996">
      <polygon
         points="275.84229 498.80796 269.02267 498.75047 266.00379 471.83263 276.06892 471.91748 275.84229 498.80796"
         fill="#a0616a"
         id="polygon992" />
      <path
         d="M253.99807,509.65233c-.01481,1.6785,1.33828,3.06028,3.0229,3.07572l13.55914,.11314,2.37372-4.81149,.8718,4.83603,5.11615,.0464-1.2919-17.24842-1.77998-.11842-7.26029-.50048-2.34232-.15686-.0411,4.88024-10.89209,7.38777c-.82869,.56298-1.32776,1.49545-1.33604,2.49637Z"
         fill="#2f2e41"
         id="path994" />
    </g>
    <g
       id="g1002">
      <polygon
         points="310.54007 498.80796 303.72044 498.75047 300.70157 471.83263 310.76669 471.91748 310.54007 498.80796"
         fill="#a0616a"
         id="polygon998" />
      <path
         d="M288.69584,509.65233c-.01481,1.6785,1.33828,3.06028,3.0229,3.07572l13.55914,.11314,2.37372-4.81149,.8718,4.83603,5.11615,.0464-1.2919-17.24842-1.77998-.11842-7.26029-.50048-2.34232-.15686-.0411,4.88024-10.89209,7.38777c-.82869,.56298-1.32776,1.49545-1.33604,2.49637Z"
         fill="#2f2e41"
         id="path1000" />
    </g>
    <path
       d="M249.08109,281.17831l27.64346,.87295,26.18854,5.81968s-2.61885,3.20082,6.11066,11.93033c0,0,11.63935,20.36886,3.49181,40.15576l-3.49181,79.14758s10.18085,55.79388,2.40219,73.5511l-10.28082,.64255-17.39634-73.54982-8.47914-79.20944-4.07377,77.98365s15.58482,53.52659,5.74359,74.77562l-11.13465-.64255-19.05157-74.13307s-8.14755-85.54922-6.98361-101.84432c1.16394-16.29509,9.31148-35.50002,9.31148-35.50002Z"
       fill="#2f2e41"
       id="path1004" />
    <g
       id="g1010">
      <path
         d="M341.91407,156.11273c-3.77892,.97845-6.04918,4.83514-5.07069,8.61407,.44834,1.73156,1.50489,3.14028,2.87746,4.07089l-.00041,.00966-.53609,12.98479,9.93665,4.59846,.7932-19.98146-.06921,.00211c.86159-1.53494,1.15931-3.38933,.68324-5.22793-.97848-3.77893-4.83517-6.04911-8.61416-5.0706Z"
         fill="#a0616a"
         id="path1006" />
      <path
         d="M286.37793,202.45483c-2.08746-2.06912-3.29844-4.87434-3.34374-7.92486-.06088-4.09228,1.98991-7.80651,5.48559-9.93539,4.02563-2.45174,9.05967-2.20364,12.82498,.63119l31.20286,23.4935,5.55989-33.84423,11.93675,3.84257-2.84806,44.07c-.19948,3.08263-1.94154,5.7983-4.6607,7.26426-2.71916,1.46596-5.94507,1.42927-8.63009-.09817l-45.0929-25.65511c-.90583-.51546-1.7216-1.13691-2.43458-1.84377Z"
         fill="#3f3d56"
         id="path1008" />
    </g>
    <g
       id="g1016">
      <path
         d="M238.79919,137.1819c1.9947,3.35541,.89159,7.69261-2.46385,9.68729-1.5375,.914-3.27962,1.17053-4.90955,.86503l-.00651,.00715-8.76131,9.59852-10.29404-3.73037,13.50476-14.7482,.04766,.05023c.46883-1.69663,1.563-3.22314,3.19555-4.19363,3.35544-1.99468,7.69258-.89152,9.68729,2.46398Z"
         fill="#a0616a"
         id="path1012" />
      <path
         d="M242.58351,208.7873l-50.08512-13.52903c-2.98215-.8057-5.29885-3.05086-6.19773-6.00635-.89888-2.95549-.22401-6.11051,1.80467-8.44008l29.00517-33.30129,11.18221,5.67535-19.87987,27.94879,38.69929,5.28473c4.66979,.63785,8.41937,4.00591,9.55199,8.58126,.98359,3.97296-.17507,8.05448-3.09949,10.91773-2.17991,2.13441-5.01491,3.27394-7.95408,3.27362-1.00399,0-2.02084-.13303-3.02702-.40473Z"
         fill="#3f3d56"
         id="path1014" />
    </g>
    <path
       d="M313.98891,292.82223l-70.0381,3.21276c-1.92358-2.92109-1.40264-7.31347,1.29122-12.81367,10.17125-20.76721,2.44654-60.05462-2.74985-80.51179-1.45798-5.73976,2.4559-11.44589,8.34855-12.03515l6.60367-.66037,6.10424-18.63399h21.37875l8.86923,10.13266,15.05189,9.14389c-2.73972,28.22064-14.41356,68.0706,2.2172,88.05507,3.63737,4.37087,4.66873,9.09743,2.92321,14.1106Z"
       fill="#3f3d56"
       id="path1018" />
    <circle
       cx="271.51868"
       cy="150.9868"
       r="20.82357"
       fill="#a0616a"
       id="circle1020" />
    <path
       d="M295.08231,137.65762c2.8972-10.56287-28.67928-19.62073-34.81549-11.11444-.85326-1.20934-4.00655-1.9439-5.45336-1.57293-1.44681,.37097-2.66357,1.29841-3.85072,2.19619-1.6323,1.2539-3.32392,2.55231-4.32553,4.35524-1.00909,1.79551-1.16487,4.24398,.19287,5.80205,1.07584,1.23904,2.9663,7.82332,4.58375,8.14978,1.12773,.23,2.07745,.41549,2.89358,.54904,.72714-1.06098,2.58132-2.39375,2.44778-3.67731,1.09807,.7271,.69691,2.00635,.47552,3.31376-.73718,4.35363-17.34626,38.05525-7.83345,28.12415,.9423,.55647,2.10715,1.07583,3.45008,1.55065,2.27775-3.43523,4.14747-7.48625,5.37914-11.7228l.00872,.07826c.42405,3.68168,3.11456,6.70263,6.67421,7.73388,14.27942,4.13681,25.82989-1.93337,29.80326-12.87997-1.45451-2.95297-2.08826-2.63223-1.95797-2.72004,1.81577-1.2238,4.31135-.42345,5.09179,1.62242,.2301,.60321,.43924,1.1182,.62043,1.50569,2.07002-7.40469,4.53201-6.33593-3.38458-21.29362Z"
       fill="#2f2e41"
       id="path1022" />
    <path
       d="M285.23139,129.99395l-1.4586-7.45697c-.12261-.62684-.23896-1.30695,.04369-1.87973,.36317-.73595,1.29668-1.04096,2.10893-.92366,.81225,.11729,1.41978,.85923,2.22791,1.0021,2.80975,.49673,6.52379-2.27858,7.53053,4.7424,.41975,2.92732,5.09082,3.23652,6.65079,5.74883,1.55997,2.51232,1.75148,6.13862-.37749,8.19111-1.70031,1.63923-4.43095,1.82843-6.63933,.99107-2.20838-.83736-3.98071-2.52874-5.52887-4.31237s-2.9501-3.71374-4.73583-5.25948"
       fill="#2f2e41"
       id="path1024" />
    <path
       d="M296.19459,141.33592c-5.69794-.79597-9.5818-2.86826-11.54365-6.15883-2.5677-4.30742-.84774-9.05031-.77338-9.25017l1.20447,.44772c-.016,.04361-1.57626,4.38523,.67957,8.15551,1.75478,2.9329,5.32489,4.79466,10.61057,5.53322l-.17758,1.27255Z"
       fill="#6c63ff"
       id="path1026" />
  </g>
  <path
     d="M322.93382,60.76232c-16.75117,0-30.38116-13.62998-30.38116-30.38116S306.18264,0,322.93382,0s30.38116,13.62998,30.38116,30.38116-13.62998,30.38116-30.38116,30.38116Zm0-48.60985c-10.05189,0-18.22869,8.1768-18.22869,18.22869s8.1768,18.22869,18.22869,18.22869,18.22869-8.1768,18.22869-18.22869-8.1768-18.22869-18.22869-18.22869Z"
     fill="#6c63ff"
     id="path1030" />
  <path
     d="M369.67748,81.40904c-1.48939,0-2.98174-.54294-4.15367-1.64367l-28.51497-26.72296c-2.45067-2.29342-2.57528-6.13854-.27889-8.58624,2.29045-2.4566,6.13557-2.57824,8.58624-.27889l28.51497,26.72296c2.45067,2.29342,2.57528,6.13854,.27889,8.58624-1.19566,1.27874-2.81263,1.92256-4.43256,1.92256Z"
     fill="#6c63ff"
     id="path1032" />
  <g
     id="g1038">
    <path
       d="M498.55135,498.12587c2.06592,.12937,3.20768-2.43737,1.64468-3.93333l-.1555-.61819c.02047-.04951,.04105-.09897,.06178-.14839,2.08924-4.9818,9.16992-4.94742,11.24139,.04177,1.83859,4.42817,4.17942,8.86389,4.75579,13.54594,.25838,2.0668,.14213,4.17236-.31648,6.20047,4.30807-9.41059,6.57515-19.68661,6.57515-30.02077,0-2.59652-.14213-5.19301-.43275-7.78295-.239-2.11854-.56839-4.2241-.99471-6.31034-2.30575-11.2772-7.29852-22.01825-14.50012-30.98962-3.46197-1.89248-6.34906-4.85065-8.09295-8.39652-.62649-1.27891-1.11739-2.65462-1.34991-4.05618,.39398,.05168,1.48556-5.94866,1.18841-6.3168,.54906-.83317,1.53178-1.24733,2.13144-2.06034,2.98232-4.04341,7.0912-3.33741,9.23621,2.15727,4.58224,2.31266,4.62659,6.14806,1.81495,9.83683-1.78878,2.34682-2.03456,5.52233-3.60408,8.03478,.16151,.20671,.32944,.40695,.4909,.61366,2.96106,3.79788,5.52208,7.88002,7.68104,12.16859-.61017-4.76621,.29067-10.50822,1.82641-14.20959,1.74819-4.21732,5.02491-7.76915,7.91045-11.41501,3.46601-4.37924,10.57337-2.46806,11.18401,3.08332,.00591,.05375,.01166,.10745,.01731,.1612-.4286,.24178-.84849,.49867-1.25864,.76992-2.33949,1.54723-1.53096,5.17386,1.24107,5.60174l.06277,.00967c-.15503,1.54366-.41984,3.07444-.80734,4.57937,3.70179,14.31579-4.29011,19.5299-15.70147,19.76412-.25191,.12916-.49738,.25832-.74929,.38109,1.15617,3.25525,2.07982,6.59447,2.76441,9.97891,.61359,2.99043,1.03991,6.01317,1.27885,9.04888,.29715,3.83006,.27129,7.67959-.05168,11.50323l.01939-.13562c.82024-4.21115,3.10671-8.14462,6.4266-10.87028,4.94561-4.06264,11.93282-5.55869,17.26826-8.82425,2.56833-1.57196,5.85945,.45945,5.41121,3.43708l-.02182,.14261c-.79443,.32289-1.56947,.69755-2.31871,1.11733-.4286,.24184-.84848,.49867-1.25864,.76992-2.33949,1.54729-1.53096,5.17392,1.24107,5.6018l.06282,.00965c.0452,.00646,.08397,.01295,.12911,.01944-1.36282,3.23581-3.26168,6.23922-5.63854,8.82922-2.31463,12.49713-12.25603,13.68282-22.89022,10.04354h-.00648c-1.16259,5.06378-2.86128,10.01127-5.0444,14.72621h-18.02019c-.06463-.20022-.12274-.40692-.18089-.60717,1.6664,.10341,3.34571,.00649,4.98629-.29702-1.33701-1.64059-2.67396-3.29409-4.01097-4.93462-.03229-.0323-.05816-.0646-.08397-.09689-.67817-.8396-1.36282-1.67283-2.04099-2.51246l-.00036-.00102c-.04245-2.57755,.26652-5.14662,.87876-7.63984l.00057-.00035Z"
       fill="#f2f2f2"
       id="path1034" />
    <path
       d="M0,514.26882c0,.66003,.53003,1.19,1.19006,1.19H551.48004c.65997,0,1.19-.52997,1.19-1.19,0-.65997-.53003-1.19-1.19-1.19H1.19006c-.66003,0-1.19006,.53003-1.19006,1.19Z"
       fill="#ccc"
       id="path1036" />
  </g>
  <path
     d="m 275.36087,83.663188 c -1.60825,-5.17464 -2.73778,-10.52642 -3.75147,-15.84445 -0.27505,-1.44295 -0.53396,-2.88908 -0.76979,-4.33897 -0.22945,-1.41068 -0.40471,-2.60171 -0.53678,-3.72136 -0.13426,-1.13812 -0.2476,-2.2806 -0.29661,-3.42592 -0.0184,-0.42893 -0.0291,-0.85849 -0.0208,-1.28781 0.004,-0.1859 0.0154,-0.3712 0.0208,-0.55693 0.0146,-0.49704 0.0997,-0.39029 -0.0107,-0.0795 0.0419,-0.11788 0.0154,-0.27755 0.0799,-0.38674 0.23369,-0.39522 -0.1968,0.18729 -0.1123,0.20914 0.002,4.7e-4 0.97225,-1.08894 0.96616,-1.0843 0.39857,-0.30371 0.5834,-0.35304 1.16974,-0.48894 0.54235,-0.1257 1.26791,-0.14495 2.02619,-0.1665 1.48183,-0.0421 2.72116,-0.12653 3.62921,0.53211 0.0183,0.0133 0.49029,0.47879 0.64415,0.6288 0.14401,0.1404 0.27061,0.18853 0.17818,0.18857 -0.13307,5e-5 -0.022,-0.1419 -0.0128,-0.0103 0.0109,0.15729 -0.32282,-0.58533 -0.082,-0.17467 0.17548,0.2993 0.0277,0.36701 0.0156,-0.10653 0.0207,0.80678 0.0394,1.58493 -0.0393,2.39283 -0.0226,0.23197 -0.0503,0.46333 -0.0784,0.69467 -0.0458,0.37669 0.0622,-0.42217 0.004,-0.034 -0.0164,0.10882 -0.0312,0.21793 -0.0489,0.32656 -0.10124,0.62259 -0.20733,1.24383 -0.32732,1.86315 -0.52583,2.71412 -1.21314,5.39728 -1.95023,8.06083 -1.56865,5.66847 -3.31037,11.35327 -5.51749,16.8102 -0.50645,1.25217 0.55123,2.74698 1.7461,3.0753 1.42864,0.39255 2.56697,-0.48929 3.0753,-1.7461 2.11331,-5.22501 3.78818,-10.66041 5.31412,-16.08146 0.83927,-2.98156 1.62371,-5.98796 2.20025,-9.03269 0.41706,-2.20255 0.87392,-4.53907 0.56167,-6.78365 -0.44361,-3.18864 -3.69874,-5.20729 -6.68361,-5.54084 -3.53337,-0.39485 -7.61507,-0.0526 -10.0764,2.79498 -1.57849,1.82621 -1.77541,3.74262 -1.66638,6.08359 0.13526,2.904 0.58291,5.80307 1.0554,8.66808 1.10129,6.67786 2.46268,13.42202 4.47351,19.89201 0.95194,3.06293 5.78019,1.7558 4.8214,-1.3292 z"
     fill="#01010c"
     id="path1080"
     style="fill:#6c63ff;fill-opacity:1" />
  <path
     d="m 272.42632,95.394182 c 0.28319,0.0386 0.55407,0.11022 0.81967,0.2157 l -0.5972,-0.25202 c 0.28283,0.12001 0.54394,0.27233 0.78997,0.45621 l -0.50597,-0.39091 c 0.28528,0.22247 0.53512,0.47696 0.75679,0.76273 l -0.39091,-0.50597 c 0.21886,0.2929 0.40011,0.60545 0.54737,0.94011 l -0.25202,-0.5972 c 0.15145,0.36094 0.25748,0.73249 0.31603,1.11961 l -0.0893,-0.6646 c 0.0473,0.35752 0.0518,0.71288 0.007,1.07095 l 0.0893,-0.6646 c -0.0446,0.30422 -0.12333,0.59608 -0.24127,0.88015 l 0.25202,-0.5972 c -0.10519,0.23721 -0.23336,0.45768 -0.38788,0.66618 l 0.39091,-0.50597 c -0.16965,0.21775 -0.36037,0.4103 -0.57561,0.58307 l 0.50597,-0.39091 c -0.25652,0.19669 -0.53262,0.35542 -0.82963,0.4826 l 0.5972,-0.25202 c -0.326,0.13216 -0.66155,0.2213 -1.00939,0.27317 l 0.6646,-0.0893 c -0.40253,0.0529 -0.80446,0.0538 -1.20738,0.004 l 0.6646,0.0893 c -0.37544,-0.0526 -0.73758,-0.14727 -1.08929,-0.28903 l 0.5972,0.25202 c -0.32148,-0.13648 -0.62004,-0.30761 -0.89675,-0.52103 l 0.50597,0.39091 c -0.21321,-0.17175 -0.40358,-0.36213 -0.57356,-0.57683 l 0.39091,0.50597 c -0.17213,-0.22817 -0.31202,-0.4708 -0.42368,-0.73394 l 0.25202,0.5972 c -0.10722,-0.27158 -0.17838,-0.54888 -0.21742,-0.83818 l 0.0893,0.6646 c -0.0352,-0.31528 -0.0309,-0.6276 0.009,-0.94228 l -0.0893,0.6646 c 0.0541,-0.37088 0.15427,-0.7267 0.29698,-1.07319 l -0.25202,0.5972 c 0.15006,-0.34642 0.33698,-0.66911 0.5627,-0.97176 l -0.39091,0.50597 c 0.22958,-0.29654 0.48839,-0.56102 0.78294,-0.79339 l -0.50597,0.39091 c 0.25299,-0.19154 0.52138,-0.35187 0.81192,-0.47976 l -0.5972,0.25202 c 0.26936,-0.11135 0.54444,-0.18939 0.8326,-0.23362 l -0.6646,0.0893 c 0.13336,-0.017 0.26584,-0.0271 0.4002,-0.0305 0.65107,-0.0164 1.30307,-0.26753 1.76777,-0.73223 0.43361,-0.43361 0.76013,-1.14502 0.73223,-1.76777 -0.0594,-1.32624 -1.09943,-2.53535 -2.5,-2.5 -1.46837,0.0371 -2.71681,0.59126 -3.84362,1.50071 -0.95892,0.77395 -1.58542,1.85721 -2.0172,2.99266 -0.42866,1.12724 -0.46612,2.45776 -0.16528,3.62035 0.35511,1.372345 1.22185,2.439098 2.34158,3.263618 0.9608,0.70748 2.1352,1.00211 3.30212,1.11944 1.18937,0.11958 2.35896,-0.174 3.43404,-0.66127 2.15975,-0.9789 3.49069,-3.476113 3.19726,-5.812378 -0.11237,-0.89466 -0.30235,-1.59313 -0.67307,-2.41713 -0.26417,-0.58716 -0.65189,-1.10244 -1.06825,-1.59127 -0.8073,-0.94782 -2.08094,-1.72722 -3.32392,-1.89667 -0.69739,-0.0951 -1.29166,-0.11942 -1.9264,0.25202 -0.51858,0.30347 -1.01315,0.89808 -1.1489,1.49408 -0.14576,0.63997 -0.11422,1.35833 0.25202,1.9264 0.32548,0.50484 0.86904,1.06369 1.49408,1.1489 v 0 z"
     fill="#01010c"
     origin="undraw"
     id="path1078"
     style="fill:#6c63ff;fill-opacity:1" />
</svg>
